<svg id="图层_1" data-name="图层 1" xmlns="http://www.w3.org/2000/svg" viewBox="0 0 375 144"><defs><style>.cls-1{fill:#333;}.cls-2{fill:#fff;}</style></defs><path class="cls-1" d="M32,144H25a2,2,0,0,1,0-4h7a2,2,0,0,1,0,4Z"/><path class="cls-1" d="M17,144H2a2,2,0,0,1,0-4H17a2,2,0,0,1,0,4Z"/><path class="cls-1" d="M373,144H40a2,2,0,0,1,0-4H373a2,2,0,0,1,0,4Z"/><path class="cls-1" d="M239.5,144h-104a2,2,0,0,1-2-2V60a2,2,0,0,1,2-2h104a2,2,0,0,1,2,2v82A2,2,0,0,1,239.5,144Zm-102-4h100V62h-100Z"/><path class="cls-1" d="M239.5,144h-104a2,2,0,0,1-2-2v-6a2,2,0,0,1,2-2h104a2,2,0,0,1,2,2v6A2,2,0,0,1,239.5,144Zm-102-4h100v-2h-100Z"/><path class="cls-1" d="M227.5,138h-80a2,2,0,0,1-2-2v-6a2,2,0,0,1,2-2h80a2,2,0,0,1,2,2v6A2,2,0,0,1,227.5,138Zm-78-4h76v-2h-76Z"/><path class="cls-1" d="M217.5,132h-60a2,2,0,0,1-2-2v-6a2,2,0,0,1,2-2h60a2,2,0,0,1,2,2v6A2,2,0,0,1,217.5,132Zm-58-4h56v-2h-56Z"/><path class="cls-1" d="M203.5,126h-32a2,2,0,0,1-2-2V84a2,2,0,0,1,2-2h32a2,2,0,0,1,2,2v40A2,2,0,0,1,203.5,126Zm-30-4h28V86h-28Z"/><path class="cls-1" d="M203.5,94h-32a2,2,0,0,1-2-2V84a2,2,0,0,1,2-2h32a2,2,0,0,1,2,2v8A2,2,0,0,1,203.5,94Zm-30-4h28V86h-28Z"/><path class="cls-1" d="M245.5,62h-116a2,2,0,0,1-1.88-2.68l8-22A2,2,0,0,1,137.5,36h100a2,2,0,0,1,1.88,1.32l8,22A2,2,0,0,1,245.5,62ZM132.36,58H242.64L236.1,40H138.9Z"/><path class="cls-1" d="M187.5,126a2,2,0,0,1-2-2V92a2,2,0,0,1,4,0v32A2,2,0,0,1,187.5,126Z"/><path class="cls-1" d="M159.5,98h-12a2,2,0,0,1-2-2V82a8,8,0,0,1,16,0V96A2,2,0,0,1,159.5,98Zm-10-4h8V82a4,4,0,0,0-8,0Z"/><path class="cls-1" d="M227.5,98h-12a2,2,0,0,1-2-2V82a8,8,0,0,1,16,0V96A2,2,0,0,1,227.5,98Zm-10-4h8V82a4,4,0,0,0-8,0Z"/><path class="cls-1" d="M159.5,118h-12a2,2,0,0,1-2-2V104a2,2,0,0,1,2-2h12a2,2,0,0,1,2,2v12A2,2,0,0,1,159.5,118Zm-10-4h8v-8h-8Z"/><path class="cls-1" d="M153.5,118a2,2,0,0,1-2-2V104a2,2,0,0,1,4,0v12A2,2,0,0,1,153.5,118Z"/><path class="cls-1" d="M153.5,98a2,2,0,0,1-2-2V87a2,2,0,0,1,4,0v9A2,2,0,0,1,153.5,98Z"/><path class="cls-1" d="M227.5,118h-12a2,2,0,0,1-2-2V104a2,2,0,0,1,2-2h12a2,2,0,0,1,2,2v12A2,2,0,0,1,227.5,118Zm-10-4h8v-8h-8Z"/><path class="cls-1" d="M221.5,118a2,2,0,0,1-2-2V104a2,2,0,0,1,4,0v12A2,2,0,0,1,221.5,118Z"/><path class="cls-1" d="M135.5,144h-80a2,2,0,0,1-2-2V86a2,2,0,0,1,2-2h80a2,2,0,0,1,2,2v56A2,2,0,0,1,135.5,144Zm-78-4h76V88h-76Z"/><path class="cls-1" d="M135.5,144h-80a2,2,0,0,1-2-2v-8a2,2,0,0,1,2-2h80a2,2,0,0,1,2,2v8A2,2,0,0,1,135.5,144Zm-78-4h76v-4h-76Z"/><path class="cls-1" d="M135.5,88h-86a2,2,0,0,1-1.9-2.63l4-12A2,2,0,0,1,53.5,72h82a2,2,0,0,1,2,2V86A2,2,0,0,1,135.5,88ZM52.27,84H133.5V76H54.94Z"/><path class="cls-1" d="M79.5,108h-12a2,2,0,0,1-2-2V94a2,2,0,0,1,2-2h12a2,2,0,0,1,2,2v12A2,2,0,0,1,79.5,108Zm-10-4h8V96h-8Z"/><path class="cls-1" d="M101.5,108h-12a2,2,0,0,1-2-2V94a2,2,0,0,1,2-2h12a2,2,0,0,1,2,2v12A2,2,0,0,1,101.5,108Zm-10-4h8V96h-8Z"/><path class="cls-1" d="M123.5,108h-12a2,2,0,0,1-2-2V94a2,2,0,0,1,2-2h12a2,2,0,0,1,2,2v12A2,2,0,0,1,123.5,108Zm-10-4h8V96h-8Z"/><path class="cls-1" d="M79.5,128h-12a2,2,0,0,1-2-2V114a2,2,0,0,1,2-2h12a2,2,0,0,1,2,2v12A2,2,0,0,1,79.5,128Zm-10-4h8v-8h-8Z"/><path class="cls-1" d="M101.5,128h-12a2,2,0,0,1-2-2V114a2,2,0,0,1,2-2h12a2,2,0,0,1,2,2v12A2,2,0,0,1,101.5,128Zm-10-4h8v-8h-8Z"/><path class="cls-1" d="M123.5,128h-12a2,2,0,0,1-2-2V114a2,2,0,0,1,2-2h12a2,2,0,0,1,2,2v12A2,2,0,0,1,123.5,128Zm-10-4h8v-8h-8Z"/><path class="cls-1" d="M73.5,108a2,2,0,0,1-2-2V94a2,2,0,0,1,4,0v12A2,2,0,0,1,73.5,108Z"/><path class="cls-1" d="M73.5,128a2,2,0,0,1-2-2V114a2,2,0,0,1,4,0v12A2,2,0,0,1,73.5,128Z"/><path class="cls-1" d="M95.5,108a2,2,0,0,1-2-2V94a2,2,0,0,1,4,0v12A2,2,0,0,1,95.5,108Z"/><path class="cls-1" d="M95.5,128a2,2,0,0,1-2-2V114a2,2,0,0,1,4,0v12A2,2,0,0,1,95.5,128Z"/><path class="cls-1" d="M117.5,108a2,2,0,0,1-2-2V94a2,2,0,0,1,4,0v12A2,2,0,0,1,117.5,108Z"/><path class="cls-1" d="M117.5,128a2,2,0,0,1-2-2V114a2,2,0,0,1,4,0v12A2,2,0,0,1,117.5,128Z"/><path class="cls-1" d="M319.5,144h-80a2,2,0,0,1-2-2V86a2,2,0,0,1,2-2h80a2,2,0,0,1,2,2v56A2,2,0,0,1,319.5,144Zm-78-4h76V88h-76Z"/><path class="cls-1" d="M319.5,144h-80a2,2,0,0,1-2-2v-8a2,2,0,0,1,2-2h80a2,2,0,0,1,2,2v8A2,2,0,0,1,319.5,144Zm-78-4h76v-4h-76Z"/><path class="cls-1" d="M325.5,88h-86a2,2,0,0,1-2-2V74a2,2,0,0,1,2-2h82a2,2,0,0,1,1.9,1.37l4,12A2,2,0,0,1,325.5,88Zm-84-4h81.23l-2.67-8H241.5Z"/><path class="cls-1" d="M307.5,108h-12a2,2,0,0,1-2-2V94a2,2,0,0,1,2-2h12a2,2,0,0,1,2,2v12A2,2,0,0,1,307.5,108Zm-10-4h8V96h-8Z"/><path class="cls-1" d="M285.5,108h-12a2,2,0,0,1-2-2V94a2,2,0,0,1,2-2h12a2,2,0,0,1,2,2v12A2,2,0,0,1,285.5,108Zm-10-4h8V96h-8Z"/><path class="cls-1" d="M263.5,108h-12a2,2,0,0,1-2-2V94a2,2,0,0,1,2-2h12a2,2,0,0,1,2,2v12A2,2,0,0,1,263.5,108Zm-10-4h8V96h-8Z"/><path class="cls-1" d="M307.5,128h-12a2,2,0,0,1-2-2V114a2,2,0,0,1,2-2h12a2,2,0,0,1,2,2v12A2,2,0,0,1,307.5,128Zm-10-4h8v-8h-8Z"/><path class="cls-1" d="M285.5,128h-12a2,2,0,0,1-2-2V114a2,2,0,0,1,2-2h12a2,2,0,0,1,2,2v12A2,2,0,0,1,285.5,128Zm-10-4h8v-8h-8Z"/><path class="cls-1" d="M263.5,128h-12a2,2,0,0,1-2-2V114a2,2,0,0,1,2-2h12a2,2,0,0,1,2,2v12A2,2,0,0,1,263.5,128Zm-10-4h8v-8h-8Z"/><path class="cls-1" d="M301.5,108a2,2,0,0,1-2-2V94a2,2,0,0,1,4,0v12A2,2,0,0,1,301.5,108Z"/><path class="cls-1" d="M301.5,128a2,2,0,0,1-2-2V114a2,2,0,0,1,4,0v12A2,2,0,0,1,301.5,128Z"/><path class="cls-1" d="M279.5,108a2,2,0,0,1-2-2V94a2,2,0,0,1,4,0v12A2,2,0,0,1,279.5,108Z"/><path class="cls-1" d="M279.5,128a2,2,0,0,1-2-2V114a2,2,0,0,1,4,0v12A2,2,0,0,1,279.5,128Z"/><path class="cls-1" d="M257.5,108a2,2,0,0,1-2-2V94a2,2,0,0,1,4,0v12A2,2,0,0,1,257.5,108Z"/><path class="cls-1" d="M257.5,128a2,2,0,0,1-2-2V114a2,2,0,0,1,4,0v12A2,2,0,0,1,257.5,128Z"/><path class="cls-1" d="M159.5,89h-12a2,2,0,0,1,0-4h12a2,2,0,0,1,0,4Z"/><path class="cls-1" d="M221.5,98a2,2,0,0,1-2-2V87a2,2,0,0,1,4,0v9A2,2,0,0,1,221.5,98Z"/><path class="cls-1" d="M227.5,89h-12a2,2,0,0,1,0-4h12a2,2,0,0,1,0,4Z"/><path class="cls-1" d="M207.5,76h-40a2,2,0,0,1-2-2V66a2,2,0,0,1,2-2h40a2,2,0,0,1,2,2v8A2,2,0,0,1,207.5,76Zm-38-4h36V68h-36Z"/><rect class="cls-2" x="195.5" y="6" width="12" height="12"/><path class="cls-1" d="M207.5,20h-12a2,2,0,0,1-2-2V6a2,2,0,0,1,2-2h12a2,2,0,0,1,2,2V18A2,2,0,0,1,207.5,20Zm-10-4h8V8h-8Z"/><path class="cls-1" d="M187.5,40a2,2,0,0,1-2-2V2a2,2,0,0,1,4,0V38A2,2,0,0,1,187.5,40Z"/><rect class="cls-2" x="187.5" y="2" width="12" height="12"/><path class="cls-1" d="M199.5,16h-12a2,2,0,0,1-2-2V2a2,2,0,0,1,2-2h12a2,2,0,0,1,2,2V14A2,2,0,0,1,199.5,16Zm-10-4h8V4h-8Z"/><path class="cls-1" d="M195.5,20a2,2,0,0,1-1.41-3.41l4-4a2,2,0,0,1,2.82,2.82l-4,4A2,2,0,0,1,195.5,20Z"/><path class="cls-1" d="M32,17.48a2,2,0,0,1-2-2V12a2,2,0,0,1,4,0v3.48A2,2,0,0,1,32,17.48Z"/><path class="cls-1" d="M20.32,22.32a2,2,0,0,1-1.42-.59l-2.46-2.46a2,2,0,0,1,2.83-2.83l2.46,2.46a2,2,0,0,1-1.41,3.42Z"/><path class="cls-1" d="M15.48,34H12a2,2,0,0,1,0-4h3.48a2,2,0,1,1,0,4Z"/><path class="cls-1" d="M17.86,48.14a2,2,0,0,1-1.42-3.41l2.46-2.46a2,2,0,0,1,2.83,2.83l-2.46,2.46A2,2,0,0,1,17.86,48.14Z"/><path class="cls-1" d="M32,54a2,2,0,0,1-2-2V48.52a2,2,0,0,1,4,0V52A2,2,0,0,1,32,54Z"/><path class="cls-1" d="M46.14,48.14a2,2,0,0,1-1.41-.58L42.27,45.1a2,2,0,0,1,2.83-2.83l2.46,2.46a2,2,0,0,1-1.42,3.41Z"/><path class="cls-1" d="M52,34H48.52a2,2,0,0,1,0-4H52a2,2,0,0,1,0,4Z"/><path class="cls-1" d="M43.68,22.32a2,2,0,0,1-1.41-3.42l2.46-2.46a2,2,0,0,1,2.83,2.83L45.1,21.73A2,2,0,0,1,43.68,22.32Z"/><path class="cls-1" d="M32,43A11,11,0,1,1,43,32,11,11,0,0,1,32,43Zm0-18a7,7,0,1,0,7,7A7,7,0,0,0,32,25Z"/><path class="cls-1" d="M345,132a12.63,12.63,0,0,1-10-4.53,9,9,0,0,1-1.79-7.81l7.86-32.42h0a4,4,0,0,1,7.78,0l7.86,32.42a9,9,0,0,1-1.79,7.81A12.63,12.63,0,0,1,345,132Zm0-43.82-7.86,32.42a5.06,5.06,0,0,0,1,4.4,9.25,9.25,0,0,0,13.64,0,5.06,5.06,0,0,0,1-4.4Z"/><path class="cls-1" d="M345,127a2,2,0,0,1-1.41-3.41l4.5-4.5a2,2,0,1,1,2.82,2.82l-4.5,4.5A2,2,0,0,1,345,127Z"/><path class="cls-1" d="M345,121a2,2,0,0,1-1.41-.59l-3-3a2,2,0,0,1,2.82-2.82l3,3A2,2,0,0,1,345,121Z"/><path class="cls-1" d="M345,144a2,2,0,0,1-2-2V110a2,2,0,0,1,4,0v32A2,2,0,0,1,345,144Z"/></svg>