<?xml version="1.0" standalone="no"?><!DOCTYPE svg PUBLIC "-//W3C//DTD SVG 1.1//EN" "http://www.w3.org/Graphics/SVG/1.1/DTD/svg11.dtd"><svg height="1000" node-id="1" sillyvg="true" template-height="1000" template-width="1000" version="1.1" viewBox="0 0 1000 1000" width="1000" xmlns="http://www.w3.org/2000/svg" xmlns:xlink="http://www.w3.org/1999/xlink"><defs node-id="142"><linearGradient gradientUnits="objectBoundingBox" id="linear-gradient" node-id="17" spreadMethod="pad" x1="304.10654" x2="319.84738" y1="520.8518" y2="491.58185"><stop offset="0" stop-color="#ffffff"></stop><stop offset="0.05016" stop-color="#e2e2e2"></stop><stop offset="0.15176" stop-color="#aeaeae"></stop><stop offset="0.25771" stop-color="#7f7f7f"></stop><stop offset="0.36578" stop-color="#585858"></stop><stop offset="0.47654" stop-color="#383838"></stop><stop offset="0.59086" stop-color="#1f1f1f"></stop><stop offset="0.71017" stop-color="#0e0e0e"></stop><stop offset="0.83777" stop-color="#030303"></stop><stop offset="0.98812" stop-color="#000000"></stop></linearGradient><linearGradient gradientUnits="objectBoundingBox" id="linear-gradient-2" node-id="31" spreadMethod="pad" x1="636.9539" x2="659.3472" y1="583.128" y2="541.4878"><stop offset="0" stop-color="#ffffff"></stop><stop offset="0.05016" stop-color="#e2e2e2"></stop><stop offset="0.15176" stop-color="#aeaeae"></stop><stop offset="0.25771" stop-color="#7f7f7f"></stop><stop offset="0.36578" stop-color="#585858"></stop><stop offset="0.47654" stop-color="#383838"></stop><stop offset="0.59086" stop-color="#1f1f1f"></stop><stop offset="0.71017" stop-color="#0e0e0e"></stop><stop offset="0.83777" stop-color="#030303"></stop><stop offset="0.98812" stop-color="#000000"></stop></linearGradient><pattern height="84.00637" id="New_Pattern_Swatch_6" node-id="5" patternUnits="userSpaceOnUse" viewBox="0 0 84.006 84.006" width="84.00637" x="0" y="0"></pattern><pattern height="84.00637" id="New_Pattern_Swatch_2" node-id="8" patternUnits="userSpaceOnUse" viewBox="0 0 84.006 84.006" width="84.00637" x="0" y="0"></pattern><pattern height="84.00637" id="New_Pattern_Swatch_5" node-id="11" patternUnits="userSpaceOnUse" viewBox="0 0 84.006 84.006" width="84.00637" x="0" y="0"></pattern><pattern height="84.00637" id="New_Pattern_Swatch_3" node-id="14" patternUnits="userSpaceOnUse" viewBox="0 0 84.006 84.006" width="84.00637" x="0" y="0"></pattern><pattern height="84.00637" id="New_Pattern_Swatch_4" node-id="28" patternUnits="userSpaceOnUse" viewBox="0 0 84.006 84.006" width="84.00637" x="0" y="0"></pattern></defs><g node-id="435"><path d="M 329.70 301.70 L 330.50 305.80 L 331.60 309.20 L 332.90 312.10 L 334.40 314.40 L 336.20 316.30 L 338.30 317.90 L 340.60 319.20 L 343.10 320.10 L 345.90 320.70 L 349.00 320.90 L 352.80 320.70 L 356.90 320.10 L 361.40 319.00 L 366.40 317.30 L 372.70 314.60 L 379.50 311.20 L 386.70 307.00 L 400.90 297.30 L 408.20 291.60 L 422.40 279.30 L 429.20 272.70 L 442.10 259.00 L 452.90 246.30 L 458.10 240.90 L 463.40 236.00 L 468.90 231.50 L 474.50 227.40 L 480.50 223.70 L 486.60 220.40 L 493.00 217.60 L 499.60 215.20 L 506.40 213.30 L 513.30 212.00 L 520.40 211.10 L 527.90 210.70 L 535.60 210.90 L 543.70 211.60 L 551.40 212.80 L 559.50 214.60 L 568.00 217.10 L 576.90 220.20 L 586.20 224.00 L 595.00 228.00 L 604.10 232.80 L 613.60 238.40 L 623.60 244.80 L 642.20 257.70 L 691.50 289.60 L 721.90 310.20 L 748.20 329.60 L 769.10 346.40 L 779.30 355.20 L 789.20 364.40 L 798.80 373.70 L 808.00 383.50 L 816.70 393.40 L 824.80 403.50 L 830.60 411.30 L 835.90 419.30 L 840.80 427.30 L 845.20 435.40 L 849.30 443.80 L 852.80 452.30 L 855.70 460.80 L 858.10 469.40 L 859.60 476.40 L 860.70 483.50 L 861.40 490.70 L 861.60 497.90 L 861.50 505.30 L 860.80 512.10 L 859.40 519.20 L 857.40 526.70 L 854.70 534.40 L 851.60 541.90 L 847.80 549.50 L 843.50 557.40 L 838.50 565.50 L 827.60 581.10 L 814.50 597.10 L 805.10 607.50 L 795.00 617.80 L 784.20 628.00 L 773.00 637.90 L 761.30 647.60 L 749.20 657.00 L 736.70 666.00 L 724.00 674.50 L 711.00 682.60 L 697.70 690.20 L 684.50 697.20 L 671.20 703.60 L 651.00 712.10 L 631.40 718.80 L 621.50 721.50 L 611.80 723.80 L 602.30 725.50 L 568.40 729.60 L 525.70 735.50 L 505.50 738.90 L 471.10 745.50 L 447.50 750.70 L 427.50 755.70 L 408.70 760.70 L 353.40 777.00 L 336.10 781.10 L 323.70 782.70 L 317.60 782.90 L 311.60 782.60 L 305.60 781.80 L 299.70 780.60 L 293.50 778.80 L 286.80 776.30 L 280.40 773.40 L 273.30 769.70 L 257.70 760.30 L 239.30 747.70 L 228.40 739.50 L 218.80 731.80 L 210.40 724.50 L 203.10 717.60 L 196.80 711.10 L 190.40 703.70 L 185.10 696.60 L 180.70 689.90 L 177.20 683.50 L 174.50 677.30 L 172.60 671.80 L 171.20 666.30 L 170.20 661.00 L 169.80 655.70 L 169.80 650.50 L 170.30 645.40 L 171.50 639.30 L 173.20 633.10 L 175.50 626.90 L 178.50 620.60 L 182.10 614.10 L 187.10 606.60 L 193.00 598.80 L 199.90 590.80 L 207.80 582.40 L 215.90 574.60 L 234.50 558.00 L 249.50 545.50 L 255.90 538.60 L 259.80 532.30 L 261.30 528.90 L 262.30 525.60 L 262.80 522.30 L 262.90 519.10 L 262.60 515.80 L 261.70 511.90 L 260.30 507.80 L 258.30 503.70 L 255.80 499.50 L 251.90 494.20 L 247.30 488.70 L 241.80 483.10 L 233.00 474.90 L 222.90 466.40 L 190.60 440.40 L 179.90 431.40 L 166.50 418.90 L 160.50 412.60 L 154.80 406.00 L 149.80 399.40 L 145.50 392.70 L 142.60 387.40 L 140.30 382.10 L 138.50 376.80 L 137.20 371.40 L 136.50 365.90 L 136.40 360.30 L 136.90 354.50 L 138.10 348.50 L 139.50 344.00 L 141.40 339.30 L 143.80 334.40 L 146.80 329.20 L 150.50 323.90 L 158.00 314.20 L 165.50 305.50 L 172.80 297.90 L 180.00 291.20 L 187.80 284.80 L 195.40 279.30 L 202.80 274.50 L 210.10 270.50 L 217.80 266.90 L 225.20 264.00 L 232.40 261.70 L 239.50 260.00 L 246.70 258.70 L 253.70 258.00 L 260.30 257.70 L 266.80 258.00 L 273.30 258.60 L 279.40 259.70 L 285.30 261.10 L 290.80 262.80 L 296.20 265.00 L 305.90 270.00 L 314.20 276.10 L 317.80 279.40 L 320.90 282.80 L 323.60 286.40 L 325.90 290.20 L 327.70 294.00 L 328.90 297.80 L 329.70 301.70 Z" fill="#fdfaf3" fill-rule="nonzero" group-id="1" node-id="222" stroke="#fdfaf3" stroke-linecap="butt" stroke-width="1" target-height="572.2" target-width="725.19995" target-x="136.4" target-y="210.7"></path><g node-id="436"><g node-id="438"><path d="M 325.80 417.60 L 324.00 416.70 L 322.40 415.50 L 321.30 413.90 L 320.60 412.10 L 320.30 410.10 L 320.60 408.10 L 321.40 406.20 L 322.60 404.70 L 324.20 403.50 L 326.00 402.70 L 328.00 402.40 L 330.00 402.70" fill="none" group-id="1,2,4" node-id="226" stroke="#3f3e46" stroke-linecap="round" stroke-width="2" target-height="15.200012" target-width="9.700012" target-x="320.3" target-y="402.4"></path><path d="M 376.40 438.30 L 374.50 444.90 L 356.10 444.90 L 358.00 439.90 L 363.30 437.40 L 367.90 433.70 L 369.80 436.30 L 371.30 437.30 L 374.60 438.40 L 376.40 438.30 Z" fill="url(#New_Pattern_Swatch_6)" fill-rule="nonzero" group-id="1,2,4" node-id="228" stroke="#3f3e46" stroke-linecap="round" stroke-width="2" target-height="11.199982" target-width="20.299988" target-x="356.1" target-y="433.7"></path><path d="M 380.50 424.20 L 377.70 422.60 L 376.10 422.30 L 374.10 422.30 L 374.10 422.10 L 373.10 421.30 L 372.20 420.30 L 371.90 419.30 L 372.60 415.60 L 369.70 416.40 L 365.50 416.60 L 363.10 416.20 L 360.70 415.50 L 358.20 414.00 L 355.40 411.20 L 353.60 408.40 L 351.80 403.50 L 351.40 400.60 L 345.20 401.40 L 339.70 401.40 L 335.50 400.40 L 332.50 398.60 L 329.90 396.60 L 327.30 393.60 L 326.50 391.80 L 326.30 389.90 L 326.40 388.60 L 328.10 385.60 L 330.10 383.70 L 332.40 382.10 L 335.00 380.80 L 337.90 380.00 L 340.90 379.60 L 344.10 379.60 L 347.30 380.00 L 350.60 380.90 L 353.90 382.30 L 357.10 384.20 L 360.10 386.60 L 363.10 389.60 L 365.70 393.00 L 368.10 397.10 L 370.30 401.90 L 369.10 402.40 L 372.20 403.00 L 374.50 403.90 L 376.70 405.30 L 378.90 407.30 L 380.10 409.00 L 381.00 411.10 L 381.60 413.70 L 381.80 416.50 L 381.50 419.90 L 380.50 424.20 Z" fill="url(#New_Pattern_Swatch_6)" fill-rule="nonzero" group-id="1,2,4" node-id="230" stroke="#3f3e46" stroke-linecap="round" stroke-width="2" target-height="44.600006" target-width="55.5" target-x="326.3" target-y="379.6"></path><path d="M 381.20 435.70 L 380.00 436.80 L 377.20 438.10 L 374.10 438.30 L 371.10 437.20 L 369.80 436.30 L 367.90 433.70 L 365.70 435.70 L 360.70 438.80 L 356.90 440.30 L 353.00 441.00 L 349.10 441.10 L 345.20 440.60 L 341.50 439.40 L 338.00 437.70 L 334.20 434.90 L 331.90 432.50 L 330.00 430.00 L 328.50 427.20 L 327.40 424.20 L 326.60 421.10 L 326.30 417.90 L 326.80 411.70 L 329.00 405.80 L 330.50 403.10 L 333.70 399.40 L 335.50 400.40 L 339.70 401.40 L 345.20 401.40 L 351.40 400.60 L 351.80 403.50 L 353.60 408.40 L 355.40 411.20 L 358.20 414.00 L 360.70 415.50 L 363.10 416.20 L 365.50 416.60 L 369.70 416.40 L 372.60 415.60 L 371.90 419.30 L 372.20 420.30 L 373.10 421.30 L 374.10 422.10 L 374.10 422.30 L 376.10 422.30 L 379.20 423.30 L 381.70 425.50 L 383.10 428.30 L 383.20 431.50 L 382.20 434.50 L 381.20 435.70 Z" fill="none" group-id="1,2,4" node-id="232" stroke="#3f3e46" stroke-linecap="round" stroke-width="2" target-height="41.700012" target-width="56.900024" target-x="326.3" target-y="399.4"></path><path d="M 376.20 427.00 L 377.40 427.90 L 378.00 429.10 L 378.20 430.40 L 377.80 431.80 L 377.00 433.00 L 375.80 433.60 L 374.40 433.80 L 373.00 433.40" fill="none" group-id="1,2,4" node-id="234" stroke="#3f3e46" stroke-linecap="round" stroke-width="2" target-height="6.799988" target-width="5.200012" target-x="373" target-y="427"></path><path d="M 362.20 420.90 L 362.00 421.60 L 361.00 422.60 L 359.50 422.60 L 358.50 421.60 L 358.50 420.10 L 359.50 419.10 L 361.00 419.10 L 362.00 420.10 L 362.20 420.90 Z" fill="#3f3e46" fill-rule="nonzero" group-id="1,2,4" node-id="236" stroke="none" target-height="3.5" target-width="3.7000122" target-x="358.5" target-y="419.1"></path><path d="M 344.20 410.00 L 344.00 410.80 L 343.00 411.80 L 341.50 411.80 L 340.50 410.80 L 340.50 409.30 L 341.50 408.20 L 343.00 408.20 L 344.00 409.30 L 344.20 410.00 Z" fill="#3f3e46" fill-rule="nonzero" group-id="1,2,4" node-id="238" stroke="none" target-height="3.5999756" target-width="3.7000122" target-x="340.5" target-y="408.2"></path><path d="M 353.40 426.20 L 352.40 427.70 L 350.70 429.00 L 349.50 429.10 L 348.30 428.70 L 346.60 427.40 Z" fill="none" group-id="1,2,4" node-id="240" stroke="#3f3e46" stroke-linecap="round" stroke-width="2" target-height="2.899994" target-width="6.799988" target-x="346.6" target-y="426.2"></path><path d="M 371.90 394.20 L 372.20 395.80 L 372.00 399.00 L 371.40 400.60 L 370.30 401.90 L 371.90 407.10" fill="none" group-id="1,2,4" node-id="242" stroke="#3f3e46" stroke-linecap="round" stroke-width="2" target-height="12.899994" target-width="1.9000244" target-x="370.3" target-y="394.2"></path><path d="M 334.80 435.40 L 331.40 436.40 L 316.60 429.70 L 325.80 417.60 L 326.30 417.90 L 326.60 421.10 L 327.40 424.20 L 328.50 427.20 L 330.00 430.00 L 331.90 432.50 L 334.80 435.40 Z" fill="url(#New_Pattern_Swatch_6)" fill-rule="nonzero" group-id="1,2,4" node-id="244" stroke="#3f3e46" stroke-linecap="round" stroke-width="2" target-height="18.799988" target-width="18.199982" target-x="316.6" target-y="417.6"></path><path d="M 383.30 400.60 L 379.30 399.90 L 375.20 400.20 L 371.70 401.50 L 370.50 402.60" fill="none" group-id="1,2,4" node-id="246" stroke="#3f3e46" stroke-linecap="round" stroke-width="2" target-height="2.7000122" target-width="12.799988" target-x="370.5" target-y="399.9"></path><path d="M 350.90 412.90 L 348.20 416.80 L 345.00 414.70 L 343.70 414.90 L 343.30 415.70 L 343.10 418.70 L 343.30 421.60" fill="none" group-id="1,2,4" node-id="248" stroke="#3f3e46" stroke-linecap="round" stroke-width="2" target-height="8.700012" target-width="7.799988" target-x="343.1" target-y="412.9"></path></g><g node-id="439"><path d="M 403.30 627.10 L 401.20 633.60 L 398.70 640.00 L 396.90 643.80 L 393.40 648.80 L 391.90 650.10 L 390.40 650.80 L 389.10 651.00 L 387.70 650.70 L 386.40 649.90 L 385.30 648.80 L 383.60 645.20 L 382.70 639.00 L 383.00 625.10 L 385.50 627.20 L 387.80 628.40 L 391.60 629.20 L 396.70 629.10 L 403.30 627.10 Z" fill="#ffffff" fill-rule="nonzero" group-id="1,2,5" node-id="252" stroke="#3f3e46" stroke-linecap="butt" stroke-width="1" target-height="25.900024" target-width="20.599976" target-x="382.7" target-y="625.1"></path><g node-id="449"><path d="M 414.50 672.40 L 405.20 669.30 L 395.30 665.00 L 390.20 662.40 L 381.00 656.80 L 376.50 652.80 L 375.10 651.00 L 373.70 647.40 L 373.60 645.80 L 374.00 643.40 L 375.10 641.30 L 376.50 639.50 L 378.00 637.90 L 382.20 634.90 L 382.30 639.00 L 383.40 645.20 L 384.20 647.30 L 386.30 649.90 L 387.70 650.70 L 389.00 651.00 L 390.30 650.90 L 391.60 650.30 L 393.50 648.90 L 395.50 646.40 L 399.10 639.90 L 407.00 645.30 L 414.10 650.70 L 420.80 656.70 L 423.60 659.80 L 425.40 662.50 L 426.30 664.80 L 426.60 666.50 L 426.30 667.90 L 425.70 669.10 L 423.50 671.00 L 421.30 671.80 L 418.90 672.30 L 414.50 672.40 Z" fill="url(#New_Pattern_Swatch_2)" fill-rule="nonzero" group-id="1,2,5,15" node-id="255" stroke="#855bfb" stroke-linecap="round" stroke-width="2" target-height="37.5" target-width="53" target-x="373.6" target-y="634.9"></path><path d="M 400.10 647.10 L 394.70 653.70" fill="none" group-id="1,2,5,15" node-id="257" stroke="#ffffff" stroke-linecap="round" stroke-width="2" target-height="6.6000366" target-width="5.399994" target-x="394.7" target-y="647.1"></path><path d="M 404.60 650.40 L 400.10 656.50" fill="none" group-id="1,2,5,15" node-id="259" stroke="#ffffff" stroke-linecap="round" stroke-width="2" target-height="6.0999756" target-width="4.5" target-x="400.1" target-y="650.4"></path><path d="M 408.90 653.40 L 405.00 658.80" fill="none" group-id="1,2,5,15" node-id="261" stroke="#ffffff" stroke-linecap="round" stroke-width="2" target-height="5.3999634" target-width="3.899994" target-x="405" target-y="653.4"></path><path d="M 413.00 656.50 L 410.00 660.80" fill="none" group-id="1,2,5,15" node-id="263" stroke="#ffffff" stroke-linecap="round" stroke-width="2" target-height="4.299988" target-width="3" target-x="410" target-y="656.5"></path></g><g node-id="450"><path d="M 159.80 620.90 L 138.20 629.50 L 126.40 633.10 L 122.50 633.90 L 116.40 634.40 L 114.20 634.10 L 111.10 632.90 L 110.10 631.90 L 109.30 630.50 L 109.20 629.00 L 110.30 625.60 L 113.20 621.90 L 116.00 619.10 L 122.60 613.70 L 133.80 606.20 L 130.30 610.40 L 128.30 613.50 L 127.40 615.60 L 127.20 617.00 L 127.50 617.90 L 128.30 618.50 L 129.60 618.80 L 131.90 618.70 L 135.50 617.80 L 140.80 615.90 L 153.40 610.20 L 162.40 605.60 L 164.40 607.30 L 166.50 610.00 L 167.20 611.70 L 167.20 614.70 L 165.60 617.30 L 164.40 618.40 L 159.80 620.90 Z" fill="url(#New_Pattern_Swatch_2)" fill-rule="nonzero" group-id="1,2,5,16" node-id="267" stroke="#855bfb" stroke-linecap="round" stroke-width="2" target-height="28.800049" target-width="58" target-x="109.2" target-y="605.6"></path><path d="M 123.50 617.40 L 126.80 621.50" fill="none" group-id="1,2,5,16" node-id="269" stroke="#ffffff" stroke-linecap="round" stroke-width="2" target-height="4.0999756" target-width="3.300003" target-x="123.5" target-y="617.4"></path><path d="M 120.50 619.80 L 123.50 623.50" fill="none" group-id="1,2,5,16" node-id="271" stroke="#ffffff" stroke-linecap="round" stroke-width="2" target-height="3.7000122" target-width="3" target-x="120.5" target-y="619.8"></path><path d="M 117.70 622.20 L 120.30 625.50" fill="none" group-id="1,2,5,16" node-id="273" stroke="#ffffff" stroke-linecap="round" stroke-width="2" target-height="3.2999878" target-width="2.600006" target-x="117.7" target-y="622.2"></path></g><path d="M 174.60 599.20 L 153.40 610.20 L 140.80 615.90 L 135.50 617.80 L 131.90 618.70 L 129.60 618.80 L 128.30 618.50 L 127.50 617.90 L 127.20 617.00 L 127.40 615.60 L 128.30 613.50 L 130.30 610.40 L 136.80 602.90 L 150.50 589.60 L 152.90 591.90 L 158.10 595.70 L 164.30 598.80 L 167.70 599.70 L 170.00 599.90 L 174.60 599.20 Z" fill="#ffffff" fill-rule="nonzero" group-id="1,2,5" node-id="276" stroke="#3f3e46" stroke-linecap="butt" stroke-width="1" target-height="29.200012" target-width="47.40001" target-x="127.2" target-y="589.6"></path><path d="M 153.50 592.30 L 150.50 589.60 L 167.30 575.00 L 185.90 559.60 L 204.60 544.90 L 234.60 522.10 L 253.20 508.80 L 262.40 503.80 L 271.70 500.20 L 276.70 498.90 L 282.30 497.90 L 288.60 497.20 L 294.80 497.00 L 301.80 497.30 L 309.60 498.30 L 326.00 501.20 L 337.60 503.90 L 346.10 507.00 L 353.10 510.90 L 360.20 516.20 L 375.40 528.40 L 387.90 539.30 L 393.80 545.00 L 399.10 551.00 L 403.70 556.90 L 406.40 561.00 L 408.60 565.10 L 410.30 569.10 L 411.60 573.30 L 412.20 577.40 L 412.20 581.50 L 411.20 588.60 L 407.10 608.70 L 402.70 628.00 L 399.10 629.30 L 396.10 629.90 L 393.70 630.10 L 389.30 629.50 L 385.60 627.60 L 383.40 625.20 L 383.90 614.10 L 384.00 603.20 L 383.50 598.10 L 382.80 593.60 L 382.00 590.80 L 379.70 586.30 L 373.60 578.80 L 369.40 574.30 L 358.70 563.80 L 352.50 558.50 L 345.80 553.50 L 338.70 548.80 L 333.70 545.90 L 323.50 541.40 L 318.30 539.60 L 313.00 538.50 L 307.70 537.80 L 303.60 537.70 L 295.70 538.50 L 291.60 539.60 L 286.30 541.50 L 278.90 544.60 L 261.90 552.50 L 242.50 562.20 L 203.70 582.80 L 173.30 599.60 L 171.00 600.10 L 168.80 600.20 L 166.70 600.00 L 163.70 599.00 L 160.80 597.50 L 155.60 594.00" fill="url(#New_Pattern_Swatch_5)" fill-rule="nonzero" group-id="1,2,5" node-id="278" stroke="#c3c3c3" stroke-linecap="round" stroke-width="2" target-height="133.09998" target-width="261.7" target-x="150.5" target-y="497"></path></g><g node-id="440"><path d="M 420.60 565.80 L 416.90 563.20 L 412.80 561.20 L 415.00 561.80 L 417.10 562.90 L 420.60 565.80 Z" fill="none" group-id="1,2,6" node-id="282" stroke="#3f3e46" stroke-linecap="round" stroke-width="2" target-height="4.5999756" target-width="7.8000183" target-x="412.8" target-y="561.2"></path><path d="M 350.10 500.10 L 349.00 500.60 L 348.30 500.50 L 347.60 499.80 L 347.00 497.90 L 346.50 490.90 L 347.30 476.70 L 349.60 458.20 L 359.20 455.10 L 369.00 452.80 L 380.30 451.40 L 398.70 451.50 L 410.50 452.50 L 415.30 453.20 L 421.80 454.50 L 428.10 456.20 L 434.00 458.20 L 439.80 460.70 L 445.00 463.40 L 449.70 466.40 L 455.80 471.50 L 460.10 477.00 L 461.70 480.00 L 462.80 483.10 L 463.30 486.20 L 463.30 489.50 L 462.80 492.70 L 461.70 496.00 L 459.90 499.50 L 457.30 503.30 L 452.20 509.10 L 446.30 514.80 L 433.80 525.30 L 412.00 542.40 L 407.80 546.90 L 406.40 549.70 L 406.50 550.70 L 407.00 551.60 L 412.90 555.50 L 416.30 558.20 L 419.10 561.00 L 422.50 565.80 L 423.40 568.60 L 420.60 565.80 L 423.40 568.60 L 424.40 570.10 L 425.50 573.50 L 425.60 575.30 L 418.50 567.50 L 413.70 563.90 L 411.50 563.00 L 421.20 571.30 L 425.00 575.30 L 426.30 577.20 L 426.80 578.50 L 426.70 579.30 L 426.30 579.80 L 425.40 580.20 L 421.50 575.50 L 419.40 573.50 L 413.80 569.70 L 410.40 568.30 L 420.40 576.70 L 424.00 580.50 L 425.20 582.20 L 425.40 583.50 L 423.50 583.60 L 422.00 583.20 L 409.10 574.60 L 398.80 568.80 L 397.30 568.30 L 396.90 568.50 L 396.80 569.10 L 399.40 574.80 L 400.00 577.60 L 399.70 578.50 L 399.10 578.90 L 398.40 578.90 L 397.30 578.40 L 393.90 574.80 L 390.30 569.00 L 387.40 562.00 L 386.60 558.80 L 386.40 555.30 L 386.80 551.40 L 387.80 547.60 L 389.50 543.10 L 392.30 537.90 L 395.50 532.80 L 399.80 526.90 L 410.50 513.60 L 414.50 507.90 L 418.70 500.60 L 420.00 497.50 L 420.80 493.00 L 420.10 489.60 L 419.30 488.10 L 418.00 486.90 L 416.10 485.80 L 413.60 484.90 L 410.10 484.20 L 405.30 483.90 L 393.90 484.80 L 384.70 486.30 L 373.00 489.10 L 366.90 491.10 L 356.90 495.60 L 350.10 500.10 Z" fill="#ffffff" fill-rule="nonzero" group-id="1,2,6" node-id="284" stroke="#3f3e46" stroke-linecap="round" stroke-width="2" target-height="132.19998" target-width="116.79999" target-x="346.5" target-y="451.4"></path><path d="M 260.90 433.00 L 261.50 439.10 L 264.40 454.20 L 267.50 465.70 L 269.40 471.10 L 271.60 476.00 L 273.90 480.00 L 275.70 482.40 L 277.50 484.00 L 279.30 485.10 L 281.80 485.80 L 283.90 485.80 L 285.80 485.30 L 287.50 484.30 L 289.10 482.80 L 290.50 480.80 L 292.30 477.30 L 294.90 468.80 L 296.40 459.80 L 297.40 447.00 L 296.00 419.60 L 295.90 412.20 L 296.70 404.80 L 298.60 396.40 L 300.00 392.20 L 303.80 383.90 L 306.20 380.00 L 308.90 376.20 L 315.30 369.50 L 323.00 362.90 L 333.50 355.50 L 335.30 354.60 L 340.10 353.20 L 356.70 349.00 L 360.40 347.30 L 360.30 347.00 L 359.60 346.90 L 349.00 346.80 L 346.10 346.30 L 359.10 342.90 L 365.20 341.00 L 369.50 339.20 L 370.00 338.50 L 365.10 338.60 L 352.10 340.60 L 369.30 337.10 L 376.50 335.10 L 379.00 334.10 L 379.60 333.50 L 378.80 333.00 L 377.20 332.80 L 371.00 333.20 L 364.80 334.60 L 349.00 336.30 L 371.00 333.20 L 373.50 332.10 L 373.90 331.20 L 372.50 330.40 L 370.60 330.10 L 362.10 330.10 L 365.90 329.30 L 365.80 328.70 L 362.30 327.30 L 358.20 326.80 L 351.40 326.80 L 342.00 328.10 L 330.20 331.30 L 316.80 336.60 L 308.70 340.50 L 302.90 343.80 L 297.60 347.20 L 292.90 350.80 L 288.70 354.40 L 283.40 359.70 L 278.90 364.90 L 275.10 370.10 L 271.70 375.60 L 266.80 385.70 L 264.20 393.10 L 262.50 399.10 L 261.50 404.70 L 260.60 416.60 L 260.90 433.00 Z" fill="#ffffff" fill-rule="nonzero" group-id="1,2,6" node-id="286" stroke="#3f3e46" stroke-linecap="round" stroke-width="2" target-height="159" target-width="119" target-x="260.6" target-y="326.8"></path><path d="M 362.00 330.10 L 358.30 330.30 Z M 355.10 330.50 L 351.40 330.60 L 355.10 330.50 Z M 346.70 341.60 L 348.30 341.30 L 346.70 341.60 Z" fill="none" group-id="1,2,6" node-id="288" stroke="#3f3e46" stroke-linecap="round" stroke-width="2" target-height="11.5" target-width="15.299988" target-x="346.7" target-y="330.1"></path><path d="M 351.90 328.90 L 347.10 337.20 L 345.80 341.40 L 345.90 342.60" fill="none" group-id="1,2,6" node-id="290" stroke="#3f3e46" stroke-linecap="round" stroke-width="2" target-height="13.700012" target-width="6.100006" target-x="345.8" target-y="328.9"></path><path d="M 340.00 343.80 L 337.40 344.10 L 335.00 345.00 L 332.80 346.50 L 328.90 350.90 L 328.30 351.00 L 327.80 350.30" fill="none" group-id="1,2,6" node-id="292" stroke="#3f3e46" stroke-linecap="round" stroke-width="2" target-height="7.200012" target-width="12.200012" target-x="327.8" target-y="343.8"></path><path d="M 416.70 486.10 L 419.50 486.10 L 424.20 487.00 L 430.40 489.80 L 434.10 492.30" fill="none" group-id="1,2,6" node-id="294" stroke="#3f3e46" stroke-linecap="round" stroke-width="2" target-height="6.1999817" target-width="17.399994" target-x="416.7" target-y="486.1"></path></g><path d="M 374.00 452.00 L 350.40 499.60 L 349.60 458.20 L 362.40 453.70 L 370.50 452.00 L 374.00 452.00 Z" fill="url(#New_Pattern_Swatch_3)" fill-rule="nonzero" group-id="1,2" node-id="297" stroke="#c6e700" stroke-linecap="round" stroke-width="2" target-height="47.600006" target-width="24.399994" target-x="349.6" target-y="452"></path><path d="M 296.00 420.20 L 272.70 476.60 L 272.60 478.70 L 274.00 481.30 L 275.40 482.60 L 279.30 485.50 L 300.40 450.30 Z" fill="url(#New_Pattern_Swatch_3)" fill-rule="nonzero" group-id="1,2" node-id="299" stroke="#c6e700" stroke-linecap="round" stroke-width="2" target-height="65.29999" target-width="27.799988" target-x="272.6" target-y="420.2"></path><g node-id="441"><g node-id="451"><path d="M 277.80 497.60 L 281.30 502.40 L 287.30 509.20 L 294.20 515.10 L 300.60 518.90 L 304.10 520.40 L 307.70 521.40 L 311.60 521.90 L 322.20 521.90 L 326.70 521.20 L 331.00 520.00 L 335.20 518.20 L 339.70 515.50 L 350.00 507.80 L 341.00 503.10 L 314.20 503.20 L 286.10 496.10 Z" fill="url(#linear-gradient)" fill-opacity="0.22" fill-rule="nonzero" group-id="1,2,7,17" id="shadow" node-id="77" stroke="none" target-height="25.800018" target-width="72.20001" target-x="277.8" target-y="496.1"></path></g><path d="M 348.90 457.10 L 343.30 463.10 L 340.60 465.50 L 334.20 470.20 L 330.80 471.90 L 328.40 472.70 L 323.90 473.10 L 322.10 472.60 L 320.70 471.70 L 319.40 470.30 L 317.70 466.70 L 316.40 460.60 L 316.00 452.80 L 316.80 441.20 L 322.00 441.20 L 326.80 441.80 L 331.20 442.80 L 335.20 444.40 L 338.20 446.00 L 341.10 448.10 L 343.80 450.60 L 346.40 453.60 L 348.90 457.10 Z" fill="#ffffff" fill-rule="nonzero" group-id="1,2,7" node-id="306" stroke="#3f3e46" stroke-linecap="round" stroke-width="2" target-height="31.899994" target-width="32.899994" target-x="316" target-y="441.2"></path><path d="M 356.10 479.50 L 355.30 487.30 L 353.10 494.50 L 350.80 498.90 L 348.10 503.00 L 344.80 506.70 L 341.10 509.90 L 337.10 512.70 L 332.60 514.90 L 325.50 517.10 L 317.70 517.90 L 309.90 517.10 L 302.70 514.90 L 298.30 512.70 L 294.20 509.90 L 290.50 506.70 L 287.30 503.00 L 284.50 498.90 L 282.30 494.50 L 280.10 487.30 L 279.30 479.50 L 280.10 471.70 L 282.30 464.60 L 284.50 460.10 L 287.30 456.10 L 290.50 452.40 L 294.20 449.10 L 298.30 446.40 L 302.70 444.20 L 309.90 441.90 L 317.70 441.10 L 317.30 450.40 L 318.00 458.50 L 318.80 462.50 L 320.10 465.80 L 321.30 467.80 L 322.70 469.20 L 324.40 470.20 L 326.90 470.90 L 329.30 471.00 L 333.70 470.00 L 337.90 467.60 L 340.80 465.20 L 343.60 462.40 L 348.40 456.40 L 350.80 459.90 L 352.60 463.50 L 354.10 467.30 L 355.20 471.30 L 355.90 475.40 L 356.10 479.50 Z" fill="url(#New_Pattern_Swatch_3)" fill-rule="nonzero" group-id="1,2,7" node-id="308" stroke="#c6e700" stroke-linecap="round" stroke-width="2" target-height="76.80002" target-width="76.80002" target-x="279.3" target-y="441.1"></path><path d="M 277.80 486.80 L 279.80 487.40 L 281.60 487.10 L 283.50 486.40 L 286.40 484.50" fill="none" group-id="1,2,7" node-id="310" stroke="#ffffff" stroke-linecap="round" stroke-width="2" target-height="2.899994" target-width="8.600006" target-x="277.8" target-y="484.5"></path><path d="M 301.20 443.70 L 301.90 446.80 L 302.00 449.90 L 301.80 452.90 L 301.00 456.00" fill="none" group-id="1,2,7" node-id="312" stroke="#ffffff" stroke-linecap="round" stroke-width="2" target-height="12.299988" target-width="1" target-x="301" target-y="443.7"></path><path d="M 350.40 455.70 L 352.60 459.20 L 355.00 465.20 L 355.80 469.10 L 355.90 471.80 L 355.20 478.00" fill="none" group-id="1,2,7" node-id="314" stroke="#ffffff" stroke-linecap="round" stroke-width="2" target-height="22.299988" target-width="5.5" target-x="350.4" target-y="455.7"></path></g></g><g node-id="437"><g node-id="442"><path d="M 735.90 433.50 L 735.50 438.30 L 734.60 442.70 L 733.10 446.90 L 731.10 450.90 L 728.70 454.60 L 725.80 457.90 L 722.40 460.80 L 718.80 463.30 L 714.80 465.30 L 710.60 466.80 L 706.10 467.70 L 701.40 468.00 L 696.70 467.70 L 692.20 466.80 L 688.00 465.30 L 684.00 463.30 L 680.30 460.80 L 677.00 457.90 L 674.10 454.60 L 671.60 450.90 L 669.60 446.90 L 668.20 442.70 L 667.20 438.30 L 666.90 433.50 L 667.20 428.80 L 668.20 424.30 L 669.60 420.10 L 671.60 416.10 L 674.10 412.50 L 677.00 409.20 L 680.30 406.20 L 684.00 403.80 L 688.00 401.80 L 692.20 400.30 L 696.70 399.40 L 701.40 399.10 L 706.10 399.40 L 710.60 400.30 L 714.80 401.80 L 718.80 403.80 L 722.40 406.20 L 725.80 409.20 L 728.70 412.50 L 731.10 416.10 L 733.10 420.10 L 734.60 424.30 L 735.50 428.80 L 735.90 433.50 Z" fill="url(#New_Pattern_Swatch_4)" fill-rule="nonzero" group-id="1,3,8" id="head-3" node-id="85" stroke="#e2e2e2" stroke-linecap="round" stroke-width="2" target-height="68.899994" target-width="69" target-x="666.9" target-y="399.1"></path><path d="M 746.20 460.40 L 744.80 461.70 L 741.50 463.60 L 737.80 464.20 L 735.90 464.10 L 734.00 463.60 L 730.70 461.90 L 728.10 459.20 L 727.10 457.50 L 723.60 460.60 L 719.90 463.20 L 715.90 465.30 L 711.70 466.80 L 707.40 467.70 L 703.00 468.10 L 698.60 468.00 L 694.30 467.30 L 690.00 466.00 L 685.90 464.20 L 682.10 461.80 L 678.40 458.80 L 675.10 455.40 L 672.50 451.70 L 670.40 447.70 L 668.80 443.50 L 667.80 439.30 L 667.40 434.90 L 667.50 430.50 L 668.10 426.10 L 669.30 421.80 L 671.10 417.70 L 673.40 413.80 L 678.10 408.30 L 680.60 409.70 L 683.60 410.70 L 686.70 411.20 L 694.50 411.20 L 703.40 410.00 L 704.40 415.60 L 706.60 421.20 L 709.10 425.20 L 711.20 427.60 L 713.30 429.30 L 717.90 431.80 L 723.70 433.00 L 729.70 432.70 L 733.90 431.60 L 733.30 433.70 L 732.90 437.40 L 733.30 438.30 L 734.50 439.70 L 736.00 440.80 L 735.90 441.20 L 738.90 441.10 L 741.20 441.60 L 743.30 442.50 L 745.20 443.90 L 746.80 445.60 L 748.70 449.20 L 749.20 453.10 L 748.40 456.90 L 746.20 460.40 Z" fill="url(#New_Pattern_Swatch_4)" fill-rule="nonzero" group-id="1,3,8" node-id="321" stroke="#e2e2e2" stroke-linecap="round" stroke-width="2" target-height="59.80002" target-width="81.79999" target-x="667.4" target-y="408.3"></path><path d="M 666.80 434.40 L 663.30 432.70 L 661.90 431.40 L 659.80 428.30 L 658.90 424.70 L 659.30 420.80 L 661.00 417.30 L 663.70 414.70 L 667.00 413.10 L 668.90 412.70 L 672.80 413.00" fill="url(#New_Pattern_Swatch_4)" fill-rule="nonzero" group-id="1,3,8" node-id="323" stroke="#e2e2e2" stroke-linecap="round" stroke-width="2" target-height="21.699982" target-width="13.899963" target-x="658.9" target-y="412.7"></path><path d="M 702.70 425.60 L 695.10 434.40 L 693.30 431.50 L 692.30 430.60 L 690.70 430.20 L 689.10 431.20 L 688.50 432.30 L 688.60 435.40 L 690.40 440.30 L 691.80 442.50" fill="none" group-id="1,3,8" node-id="325" stroke="#3f3e46" stroke-linecap="round" stroke-width="2" target-height="16.899994" target-width="14.200012" target-x="688.5" target-y="425.6"></path><path d="M 739.00 447.90 L 740.20 448.70 L 741.60 450.90 L 741.80 453.50 L 741.30 454.80 L 740.50 456.00 L 738.40 457.40 L 735.80 457.60 L 734.50 457.10" fill="none" group-id="1,3,8" node-id="327" stroke="#3f3e46" stroke-linecap="round" stroke-width="2" target-height="9.700012" target-width="7.299988" target-x="734.5" target-y="447.9"></path><path d="M 718.90 439.10 L 718.70 440.10 L 718.10 441.00 L 716.20 441.80 L 715.10 441.60 L 714.20 441.00 L 713.60 440.10 L 713.40 439.10 L 713.60 438.00 L 714.20 437.10 L 715.10 436.50 L 716.20 436.30 L 717.20 436.50 L 718.10 437.10 L 718.70 438.00 L 718.90 439.10 Z" fill="#3f3e46" fill-rule="nonzero" group-id="1,3,8" node-id="329" stroke="none" target-height="5.5" target-width="5.5" target-x="713.4" target-y="436.3"></path><path d="M 694.60 422.10 L 694.40 423.10 L 693.80 424.00 L 692.90 424.60 L 691.80 424.80 L 690.80 424.60 L 689.90 424.00 L 689.30 423.10 L 689.10 422.10 L 689.30 421.00 L 689.90 420.10 L 690.80 419.60 L 691.80 419.30 L 692.90 419.60 L 693.80 420.10 L 694.40 421.00 L 694.60 422.10 Z" fill="#3f3e46" fill-rule="nonzero" group-id="1,3,8" node-id="331" stroke="none" target-height="5.5" target-width="5.5" target-x="689.1" target-y="419.3"></path><path d="M 706.30 446.70 L 704.90 448.90 L 703.80 450.00 L 702.50 450.70 L 700.80 450.90 L 699.60 450.60 L 696.50 448.50" fill="none" group-id="1,3,8" node-id="333" stroke="#3f3e46" stroke-linecap="round" stroke-width="2" target-height="4.1999817" target-width="9.799988" target-x="696.5" target-y="446.7"></path><path d="M 736.00 440.80 L 738.30 441.30 L 740.00 441.40 L 741.20 441.00 L 743.20 439.10 L 744.30 435.20 L 744.40 432.10 L 743.80 425.60 L 746.80 425.00 L 750.50 422.80 L 752.20 420.90 L 753.80 417.30 L 754.30 412.20 L 753.90 409.00 L 753.00 405.00 L 751.10 400.80 L 750.10 399.80 L 747.80 398.70 L 746.70 398.80 L 745.20 399.40 L 743.90 400.50 L 743.00 402.00 L 742.60 403.60 L 743.10 405.50 L 743.80 406.40 L 748.50 409.40 L 751.50 410.80 L 754.90 411.90 L 759.60 412.40 L 762.00 412.10 L 764.20 411.30 L 766.40 410.00 L 768.50 408.00 L 770.20 405.70 L 771.80 402.40 L 773.20 397.90 L 774.90 390.10 L 776.70 377.40 L 776.80 372.20 L 776.60 366.70 L 776.00 362.00 L 775.10 358.00 L 773.80 354.60 L 772.10 351.20 L 770.20 348.40 L 768.10 346.10 L 765.80 344.20 L 763.20 342.60 L 757.60 340.50 L 754.50 339.90 L 750.40 339.70 L 746.10 340.00 L 741.60 340.80 L 737.30 342.00 L 733.00 343.60 L 724.80 348.10 L 717.70 353.70 L 714.70 357.00 L 712.20 360.30 L 710.10 363.80 L 708.90 366.60 L 707.70 372.10 L 707.60 374.90 L 708.00 377.60 L 708.80 380.40 L 710.10 383.20 L 712.00 386.00 L 713.20 387.20 L 715.90 388.40 L 718.30 388.40 L 720.60 387.90 L 722.70 386.80 L 725.30 384.20 L 726.00 381.70 L 725.70 380.40 L 725.00 379.00 L 722.10 376.40 L 716.20 374.00 L 711.00 372.70 L 706.30 372.00 L 701.90 371.70 L 697.90 371.90 L 693.80 372.50 L 690.10 373.50 L 686.80 374.80 L 683.80 376.50 L 681.10 378.60 L 678.70 381.00 L 676.70 383.70 L 675.10 386.70 L 673.90 389.90 L 673.10 393.40 L 672.70 397.10 L 672.80 401.20 L 673.30 403.70 L 674.40 406.10 L 676.10 408.40 L 680.70 412.30 L 683.80 414.10 L 688.70 416.30 L 694.20 418.20 L 700.00 419.50 L 705.90 420.30 L 711.70 420.60 L 717.10 420.30 L 720.60 419.80 L 726.40 417.90 L 728.80 416.50 L 730.70 414.80 L 732.00 412.90 L 729.60 422.00 L 729.00 428.50 L 729.20 431.70 L 729.60 433.70 L 731.20 437.20 L 732.40 438.70 L 734.00 439.90 L 736.00 440.80 Z" fill="none" group-id="1,3,8" node-id="335" stroke="#3f3e46" stroke-linecap="round" stroke-width="2" target-height="101.69998" target-width="104.099976" target-x="672.7" target-y="339.7"></path></g><g node-id="443"><g node-id="452"><path d="M 793.90 799.60 L 788.00 797.90 L 778.10 794.20 L 766.30 789.00 L 760.20 785.90 L 748.70 779.20 L 744.10 775.80 L 739.00 771.10 L 737.40 769.00 L 736.10 766.30 L 735.40 763.80 L 735.30 761.50 L 736.50 757.10 L 737.60 755.10 L 739.70 752.40 L 742.00 750.20 L 748.20 745.90 L 748.30 751.60 L 749.30 759.50 L 751.00 764.20 L 752.20 766.10 L 753.70 767.60 L 755.40 768.60 L 757.30 769.00 L 759.10 768.80 L 760.90 768.00 L 762.60 766.80 L 766.20 762.60 L 768.70 758.50 L 771.30 753.20 L 779.60 758.70 L 792.20 767.80 L 800.70 775.00 L 804.30 778.60 L 807.40 782.20 L 809.40 785.40 L 810.60 788.00 L 811.10 790.10 L 811.10 791.90 L 810.70 793.50 L 810.00 795.00 L 808.90 796.20 L 806.80 797.60 L 804.30 798.60 L 798.80 799.60 L 793.90 799.60 Z" fill="url(#New_Pattern_Swatch_3)" fill-rule="nonzero" group-id="1,3,9,18" node-id="340" stroke="#c6e700" stroke-linecap="round" stroke-width="2" target-height="53.69995" target-width="75.79999" target-x="735.3" target-y="745.9"></path><path d="M 773.20 763.40 L 765.50 772.80" fill="none" group-id="1,3,9,18" node-id="342" stroke="#ffffff" stroke-linecap="round" stroke-width="2" target-height="9.399963" target-width="7.700012" target-x="765.5" target-y="763.4"></path><path d="M 779.80 768.10 L 773.20 776.80" fill="none" group-id="1,3,9,18" node-id="344" stroke="#ffffff" stroke-linecap="round" stroke-width="2" target-height="8.700012" target-width="6.5999756" target-x="773.2" target-y="768.1"></path><path d="M 785.90 772.50 L 780.30 780.10" fill="none" group-id="1,3,9,18" node-id="346" stroke="#ffffff" stroke-linecap="round" stroke-width="2" target-height="7.5999756" target-width="5.6000366" target-x="780.3" target-y="772.5"></path><path d="M 791.70 776.80 L 787.40 783.00" fill="none" group-id="1,3,9,18" node-id="348" stroke="#ffffff" stroke-linecap="round" stroke-width="2" target-height="6.200012" target-width="4.299988" target-x="787.4" target-y="776.8"></path></g><g node-id="453"><path d="M 428.80 725.80 L 403.60 736.10 L 389.20 741.00 L 382.10 743.00 L 375.70 744.40 L 367.80 745.10 L 364.60 744.90 L 360.30 743.80 L 357.50 741.60 L 356.50 739.90 L 356.20 738.10 L 356.40 736.00 L 357.20 734.00 L 360.00 729.50 L 363.00 726.10 L 370.60 719.20 L 382.60 710.40 L 391.50 704.80 L 385.40 712.50 L 382.60 717.60 L 382.10 719.30 L 382.20 720.60 L 382.50 721.60 L 384.50 722.70 L 386.20 722.90 L 392.10 721.90 L 401.60 718.60 L 419.60 710.40 L 432.60 703.90 L 435.40 706.30 L 438.40 710.20 L 439.60 713.50 L 439.40 716.90 L 438.60 718.70 L 437.20 720.60 L 435.40 722.20 L 432.70 723.90 L 428.80 725.80 Z" fill="url(#New_Pattern_Swatch_3)" fill-rule="nonzero" group-id="1,3,9,19" node-id="352" stroke="#c6e700" stroke-linecap="round" stroke-width="2" target-height="41.19995" target-width="83.399994" target-x="356.2" target-y="703.9"></path><path d="M 376.80 720.70 L 381.50 726.70" fill="none" group-id="1,3,9,19" node-id="354" stroke="#ffffff" stroke-linecap="round" stroke-width="2" target-height="6" target-width="4.700012" target-x="376.8" target-y="720.7"></path><path d="M 372.50 724.20 L 376.80 729.60" fill="none" group-id="1,3,9,19" node-id="356" stroke="#ffffff" stroke-linecap="round" stroke-width="2" target-height="5.3999634" target-width="4.299988" target-x="372.5" target-y="724.2"></path><path d="M 368.40 727.60 L 372.10 732.50" fill="none" group-id="1,3,9,19" node-id="358" stroke="#ffffff" stroke-linecap="round" stroke-width="2" target-height="4.9000244" target-width="3.7000122" target-x="368.4" target-y="727.6"></path></g><path d="M 450.00 694.70 L 419.60 710.40 L 401.60 718.60 L 396.30 720.60 L 388.80 722.60 L 386.20 722.90 L 384.50 722.70 L 383.30 722.30 L 382.50 721.60 L 382.20 720.60 L 382.10 719.30 L 382.60 717.60 L 385.40 712.50 L 387.90 709.00 L 391.50 704.80 L 401.20 694.50 L 415.50 681.00 L 422.70 687.20 L 426.40 689.70 L 433.70 693.60 L 440.10 695.40 L 443.40 695.70 L 446.70 695.50 L 450.00 694.70 Z" fill="url(#New_Pattern_Swatch_4)" fill-rule="nonzero" group-id="1,3,9" node-id="361" stroke="#e2e2e2" stroke-linecap="round" stroke-width="2" target-height="41.900024" target-width="67.899994" target-x="382.1" target-y="681"></path><path d="M 777.80 734.70 L 774.80 744.10 L 771.30 753.20 L 768.70 758.50 L 766.20 762.60 L 762.60 766.80 L 760.90 768.00 L 759.10 768.80 L 757.30 769.00 L 755.40 768.60 L 753.70 767.60 L 752.20 766.10 L 751.00 764.20 L 749.30 759.50 L 748.30 751.60 L 748.20 745.90 L 748.70 731.80 L 751.00 734.00 L 753.10 735.30 L 755.50 736.50 L 761.10 737.80 L 767.00 737.70 L 770.10 737.20 L 777.80 734.70 Z" fill="url(#New_Pattern_Swatch_4)" fill-rule="nonzero" group-id="1,3,9" node-id="363" stroke="#e2e2e2" stroke-linecap="round" stroke-width="2" target-height="37.200012" target-width="29.599976" target-x="748.2" target-y="731.8"></path><path d="M 419.80 684.80 L 415.50 681.00 L 435.80 663.10 L 458.50 644.30 L 503.80 608.50 L 538.20 582.60 L 559.50 567.30 L 565.30 563.60 L 571.60 560.00 L 579.20 556.50 L 590.20 552.60 L 596.60 550.90 L 603.10 549.60 L 610.20 548.80 L 617.90 548.30 L 625.70 548.30 L 634.20 548.80 L 643.50 550.00 L 656.80 552.30 L 676.40 556.20 L 683.70 558.10 L 690.40 560.20 L 695.80 562.50 L 700.90 565.10 L 705.80 568.10 L 716.00 575.70 L 737.80 593.20 L 755.80 608.90 L 764.10 617.10 L 774.20 628.40 L 778.50 634.10 L 782.30 640.00 L 785.50 645.80 L 787.90 651.60 L 789.30 656.10 L 790.20 660.50 L 790.60 664.90 L 790.50 669.30 L 788.90 682.80 L 786.20 699.30 L 782.50 717.20 L 777.80 734.70 L 773.70 736.20 L 767.00 737.70 L 763.80 737.90 L 758.80 737.40 L 755.50 736.50 L 753.10 735.30 L 751.00 734.00 L 748.70 731.80 L 749.60 715.90 L 749.80 700.40 L 749.10 690.80 L 747.20 682.60 L 745.70 679.10 L 744.00 676.20 L 740.50 671.70 L 729.30 659.00 L 721.90 651.50 L 714.00 644.00 L 705.00 636.40 L 692.10 626.90 L 685.20 622.40 L 678.10 618.40 L 670.90 614.80 L 663.50 611.80 L 657.80 609.90 L 652.10 608.40 L 646.40 607.30 L 640.70 606.70 L 635.00 606.50 L 629.30 606.90 L 623.50 607.80 L 617.80 609.30 L 611.40 611.40 L 595.90 617.70 L 569.60 630.20 L 540.30 645.40 L 450.00 694.70 L 446.70 695.50 L 443.40 695.70 L 440.10 695.40 L 436.80 694.60 L 430.70 692.20 L 422.70 687.20" fill="url(#New_Pattern_Swatch_2)" fill-rule="nonzero" group-id="1,3,9" node-id="365" stroke="#855bfb" stroke-linecap="round" stroke-width="2" target-height="189.60004" target-width="375.09998" target-x="415.5" target-y="548.3"></path><path d="M 567.20 576.90 L 557.10 582.70 L 545.80 590.00 L 534.40 597.90 L 510.40 615.60 L 475.50 643.70 L 455.00 661.00 L 423.60 688.80 L 420.80 686.70 L 425.00 682.10 L 430.10 677.20 L 441.60 667.30 L 465.60 646.70 L 490.50 626.70 L 502.90 617.30 L 526.40 600.10 L 546.40 586.30 L 560.70 577.00 L 567.10 573.30 Z" fill="#ffffff" fill-rule="nonzero" group-id="1,3,9" node-id="367" stroke="#ffffff" stroke-linecap="round" stroke-width="2" target-height="115.5" target-width="146.40002" target-x="420.8" target-y="573.3"></path></g><g node-id="444"><path d="M 795.00 485.40 L 786.30 483.70 L 777.70 482.60 L 769.10 482.00 L 760.80 481.90 L 744.90 482.90 L 759.40 482.90 L 762.00 487.40 L 764.00 491.60 L 765.30 495.50 L 766.80 503.50 L 767.00 507.00 L 766.60 512.30 L 765.80 516.80 L 764.50 521.10 L 761.70 527.50 L 759.40 531.20 L 759.10 531.20 L 773.20 529.80 L 781.00 529.30 L 787.00 529.50 L 791.60 530.10 L 795.10 530.90 L 797.80 532.00 L 799.80 533.20 L 801.30 534.60 L 802.60 536.30 L 803.40 538.20 L 803.80 540.30 L 803.80 542.70 L 803.30 545.80 L 802.10 549.40 L 798.10 557.50 L 792.20 566.60 L 787.00 573.50 L 774.70 588.50 L 765.60 601.00 L 761.90 607.10 L 759.00 612.50 L 756.90 617.20 L 755.20 622.10 L 754.20 626.50 L 753.70 630.40 L 753.70 634.30 L 754.10 638.00 L 755.00 641.40 L 756.90 646.50 L 759.20 651.40 L 761.80 656.00 L 764.40 659.80 L 767.10 663.00 L 769.30 664.90 L 770.80 665.60 L 771.90 665.60 L 772.70 665.10 L 773.20 663.20 L 772.20 659.70 L 768.60 651.50 L 768.60 650.70 L 769.70 650.50 L 779.80 655.70 L 786.20 659.40 L 802.20 670.30 L 804.70 671.70 L 806.70 672.40 L 808.70 672.60 L 809.50 672.20 L 809.70 671.70 L 809.50 670.80 L 808.90 669.60 L 805.30 665.40 L 795.90 656.90 L 788.00 650.40 L 794.40 653.30 L 800.90 657.90 L 806.40 663.50 L 809.40 667.50 L 810.80 667.00 L 811.40 666.20 L 811.50 665.10 L 810.30 662.30 L 808.90 660.40 L 803.50 654.70 L 797.30 649.00 L 789.60 642.80 L 792.10 643.70 L 797.60 647.50 L 805.10 654.80 L 809.70 660.40 L 809.70 657.80 L 809.10 655.30 L 808.10 653.00 L 806.60 650.80 L 802.60 646.80 L 806.60 650.80 L 806.50 649.60 L 805.30 646.80 L 801.60 641.20 L 796.40 636.00 L 793.40 633.50 L 783.30 626.70 L 782.60 625.60 L 782.30 624.40 L 782.50 623.00 L 783.30 621.10 L 784.90 618.90 L 787.50 616.10 L 791.80 612.00 L 826.70 584.60 L 834.50 578.20 L 846.70 566.80 L 855.20 557.30 L 858.40 552.80 L 860.80 548.60 L 862.40 544.60 L 863.40 540.90 L 863.90 536.90 L 863.80 533.20 L 863.10 529.50 L 862.00 525.90 L 860.30 522.50 L 858.30 519.20 L 855.70 515.90 L 852.70 512.60 L 848.20 508.70 L 843.10 504.90 L 837.20 501.30 L 824.50 495.00 L 810.20 489.60 L 795.00 485.40 Z M 802.60 646.80 L 799.10 644.30 L 791.50 640.30 L 795.60 641.60 L 797.60 642.70 L 802.60 646.80 Z" fill="url(#New_Pattern_Swatch_4)" fill-rule="nonzero" group-id="1,3,10" node-id="371" stroke="#e2e2e2" stroke-linecap="round" stroke-width="2" target-height="190.69998" target-width="119" target-x="744.9" target-y="481.9"></path><path d="M 747.70 532.80 L 737.90 534.70 L 730.00 536.60 L 722.80 538.80 L 717.20 541.10 L 712.10 543.80 L 708.10 546.50 L 704.50 549.50 L 700.40 553.70 L 699.60 553.80 L 698.90 553.30 L 697.90 550.60 L 697.60 548.00 L 697.30 538.60 L 697.70 526.80 L 698.70 514.60 L 700.90 492.70 L 709.50 489.90 L 718.20 487.50 L 727.00 485.60 L 735.90 484.00 L 744.90 482.90 L 748.00 486.50 L 752.00 492.80 L 754.70 500.10 L 755.80 507.10 L 755.90 510.80 L 755.40 514.80 L 754.40 519.10 L 752.90 523.30 L 750.70 527.90 L 747.70 532.80 Z" fill="#ffffff" fill-rule="nonzero" group-id="1,3,10" node-id="373" stroke="#3f3e46" stroke-linecap="round" stroke-width="2" target-height="70.899994" target-width="58.600037" target-x="697.3" target-y="482.9"></path><path d="M 743.80 315.40 L 741.10 315.10 L 704.70 316.50 L 698.70 316.20 L 728.70 312.70 L 739.20 311.10 L 738.40 310.50 L 736.50 310.10 L 729.00 309.70 L 702.10 310.30 L 718.40 307.50 L 726.70 305.80 L 726.90 305.40 L 726.40 304.90 L 724.50 304.10 L 719.30 303.20 L 710.20 302.90 L 704.50 303.30 L 697.50 304.30 L 690.60 305.60 L 682.60 307.70 L 673.20 310.60 L 664.10 313.90 L 653.80 318.30 L 642.30 323.90 L 635.20 327.80 L 628.80 331.80 L 617.80 339.80 L 611.00 345.70 L 605.20 351.60 L 600.20 357.40 L 595.50 363.60 L 591.50 369.60 L 585.20 381.70 L 580.70 393.00 L 578.10 401.30 L 576.30 408.60 L 573.50 424.90 L 572.90 435.70 L 573.00 442.50 L 578.80 443.40 L 584.00 443.80 L 588.80 443.80 L 597.80 442.40 L 605.30 439.90 L 611.40 436.80 L 618.40 431.60 L 623.90 425.80 L 625.40 414.40 L 626.60 408.60 L 628.20 402.80 L 630.10 397.10 L 632.50 391.40 L 635.30 385.80 L 638.70 380.40 L 642.60 375.10 L 645.70 371.50 L 653.80 363.60 L 667.20 352.60 L 675.00 347.10 L 680.40 344.10 L 687.20 342.10 L 706.50 337.40 L 711.00 336.10 L 716.20 333.80 L 716.30 333.40 L 715.90 333.20 L 714.30 332.90 L 699.00 332.90 L 695.80 332.20 L 705.90 330.70 L 719.90 328.00 L 728.00 325.70 L 731.00 324.00 L 730.90 323.70 L 729.80 323.30 L 723.50 322.90 L 714.10 323.20 L 703.90 324.00 L 695.40 325.10 L 734.10 318.50 L 741.00 316.80 L 743.30 315.90 L 743.80 315.40 Z" fill="url(#New_Pattern_Swatch_4)" fill-rule="nonzero" group-id="1,3,10" node-id="375" stroke="#e2e2e2" stroke-linecap="round" stroke-width="2" target-height="140.9" target-width="170.89996" target-x="572.9" target-y="302.9"></path><path d="M 760.60 531.00 L 747.70 532.80 L 750.70 527.90 L 752.90 523.30 L 754.40 519.10 L 755.30 514.80 L 755.70 510.80 L 755.60 507.10 L 754.40 500.10 L 751.50 492.80 L 747.40 486.50 L 744.10 482.90 L 749.20 482.20 L 759.80 481.90 L 762.70 487.00 L 765.00 491.60 L 766.50 495.80 L 768.40 504.10 L 768.60 507.80 L 768.10 514.60 L 766.10 521.60 L 764.70 524.80 L 763.10 527.60 L 760.60 531.00 Z" fill="url(#New_Pattern_Swatch_3)" fill-rule="nonzero" group-id="1,3,10" node-id="377" stroke="#c6e700" stroke-linecap="round" stroke-width="2" target-height="50.899994" target-width="24.5" target-x="744.1" target-y="481.9"></path><path d="M 704.10 307.30 L 700.30 313.30 L 697.60 318.40 L 695.70 323.40 L 695.30 325.50 L 695.50 326.90" fill="none" group-id="1,3,10" node-id="379" stroke="#ffffff" stroke-linecap="round" stroke-width="2" target-height="19.600006" target-width="8.799988" target-x="695.3" target-y="307.3"></path><path d="M 689.00 331.60 L 684.30 330.00 L 682.40 329.70 L 680.50 329.70 L 678.60 330.10 L 676.90 331.10 L 675.90 332.00 L 672.60 338.80 L 671.70 339.40 L 671.10 339.40 L 669.60 338.00" fill="none" group-id="1,3,10" node-id="381" stroke="#ffffff" stroke-linecap="round" stroke-width="2" target-height="9.699982" target-width="19.400024" target-x="669.6" target-y="329.7"></path><path d="M 797.10 533.10 L 801.10 532.90 L 807.80 534.10 L 815.20 537.10 L 822.00 541.50" fill="none" group-id="1,3,10" node-id="383" stroke="#ffffff" stroke-linecap="round" stroke-width="2" target-height="8.599976" target-width="24.900024" target-x="797.1" target-y="532.9"></path></g><g node-id="445"><path d="M 599.50 549.90 L 605.80 558.60 L 613.20 566.70 L 617.70 570.90 L 622.90 574.90 L 630.40 579.60 L 634.50 581.50 L 638.80 583.10 L 643.20 584.10 L 647.80 584.70 L 660.10 584.90 L 665.50 584.50 L 670.40 583.60 L 675.20 582.20 L 680.00 580.20 L 684.70 577.70 L 690.10 574.20 L 702.00 565.00 L 689.80 557.90 L 651.50 557.90 L 611.40 547.20 Z" fill="url(#linear-gradient-2)" fill-opacity="0.22" fill-rule="nonzero" group-id="1,3,11" id="shadow-2" node-id="118" stroke="none" target-height="37.700012" target-width="102.5" target-x="599.5" target-y="547.2"></path></g><g node-id="446"><path d="M 710.10 523.20 L 709.80 529.20 L 708.90 535.00 L 707.30 540.60 L 705.20 545.90 L 702.60 551.00 L 699.50 555.70 L 695.90 560.10 L 692.00 564.00 L 687.60 567.60 L 682.90 570.70 L 677.80 573.30 L 672.50 575.40 L 666.90 576.90 L 661.10 577.90 L 655.10 578.20 L 649.00 577.90 L 643.30 576.90 L 637.70 575.40 L 632.30 573.30 L 627.30 570.70 L 622.60 567.60 L 618.20 564.00 L 614.30 560.10 L 610.70 555.70 L 607.60 551.00 L 605.00 545.90 L 602.90 540.60 L 601.30 535.00 L 600.40 529.20 L 600.10 523.20 L 600.40 517.10 L 601.30 511.30 L 602.90 505.80 L 605.00 500.40 L 607.60 495.40 L 610.70 490.70 L 614.30 486.30 L 618.20 482.30 L 622.60 478.80 L 627.30 475.70 L 632.30 473.10 L 637.70 471.00 L 643.30 469.40 L 649.00 468.50 L 655.10 468.20 L 654.60 482.20 L 655.40 492.00 L 657.10 499.90 L 659.30 505.00 L 660.90 507.10 L 662.70 508.70 L 664.70 509.80 L 667.50 510.60 L 672.50 510.90 L 674.90 510.60 L 678.10 509.60 L 681.10 508.10 L 684.10 506.20 L 688.20 502.70 L 692.10 498.70 L 699.10 490.10 L 702.40 495.00 L 705.10 500.30 L 707.30 505.70 L 708.90 511.40 L 709.80 517.20 L 710.10 523.20 Z" fill="#ffffff" fill-rule="nonzero" group-id="1,3,12" node-id="391" stroke="#3f3e46" stroke-linecap="round" stroke-width="2" target-height="110" target-width="110" target-x="600.1" target-y="468.2"></path><path d="M 692.60 482.90 L 686.00 490.40 L 680.70 494.50 L 677.90 495.90 L 674.10 496.80 L 672.20 496.60 L 670.70 496.10 L 669.50 495.20 L 668.60 494.00 L 667.60 491.70 L 666.90 485.80 L 667.60 476.40 L 668.80 469.90 L 673.20 471.40 L 681.40 475.10 L 689.00 480.00 L 692.60 482.90 Z" fill="#ffffff" fill-rule="nonzero" group-id="1,3,12" node-id="393" stroke="#3f3e46" stroke-linecap="round" stroke-width="2" target-height="26.899994" target-width="25.699951" target-x="666.9" target-y="469.9"></path><path d="M 699.10 490.10 L 692.10 498.70 L 688.20 502.80 L 684.10 506.40 L 681.10 508.40 L 678.20 510.00 L 672.90 511.60 L 668.10 511.60 L 665.70 511.00 L 662.90 509.80 L 660.50 508.00 L 658.60 505.80 L 655.70 500.50 L 654.70 497.30 L 653.70 492.40 L 653.10 482.40 L 653.20 477.90 L 654.20 468.00 L 659.60 468.30 L 664.90 469.00 L 670.10 470.20 L 668.30 478.70 L 667.70 486.00 L 667.90 488.50 L 668.90 492.40 L 669.80 494.10 L 671.10 495.20 L 672.80 495.80 L 676.60 495.80 L 678.50 495.20 L 681.10 493.80 L 685.90 489.70 L 687.90 487.60 L 691.80 482.20 L 695.60 486.00 L 699.10 490.10 Z" fill="url(#New_Pattern_Swatch_3)" fill-rule="nonzero" group-id="1,3,12" node-id="395" stroke="#c6e700" stroke-linecap="round" stroke-width="2" target-height="43.600006" target-width="46" target-x="653.1" target-y="468"></path></g><g node-id="447"><path d="M 626.00 476.50 L 625.40 486.50 L 623.50 502.10 L 621.00 513.40 L 617.90 521.80 L 614.70 527.10 L 612.70 529.20 L 610.60 530.80 L 608.40 531.80 L 606.60 532.20 L 602.50 531.90 L 600.10 531.10 L 595.50 528.20 L 591.10 523.50 L 588.70 519.90 L 586.40 515.50 L 582.40 505.30 L 579.10 493.80 L 577.20 484.60 L 575.60 475.20 L 573.60 456.50 L 584.50 456.90 L 589.50 456.70 L 600.80 455.30 L 606.40 453.90 L 610.10 452.60 L 616.50 449.10 L 619.30 446.80 L 621.60 444.20 L 623.40 441.10 L 623.70 449.40 L 625.90 473.70 L 626.00 476.50 Z" fill="#ffffff" fill-rule="nonzero" group-id="1,3,13" node-id="399" stroke="#3f3e46" stroke-linecap="round" stroke-width="2" target-height="91.100006" target-width="52.400024" target-x="573.6" target-y="441.1"></path><path d="M 623.90 425.80 L 623.40 441.80 L 621.60 444.90 L 619.30 447.60 L 616.50 449.80 L 610.10 453.30 L 606.50 454.60 L 600.80 456.00 L 589.50 457.40 L 584.60 457.60 L 573.70 457.10 L 573.00 441.30 L 578.80 442.20 L 584.00 442.70 L 588.80 442.60 L 593.50 442.20 L 601.60 440.40 L 608.60 437.70 L 615.40 433.60 L 620.90 428.90 L 623.90 425.60 Z" fill="url(#New_Pattern_Swatch_3)" fill-rule="nonzero" group-id="1,3,13" node-id="401" stroke="#c6e700" stroke-linecap="round" stroke-width="2" target-height="32" target-width="50.900024" target-x="573" target-y="425.6"></path></g><g node-id="448"><path d="M 702.10 310.30 L 730.10 307.60" fill="none" group-id="1,3,14" node-id="405" stroke="#ffffff" stroke-linecap="round" stroke-width="2" target-height="2.6999817" target-width="28" target-x="702.1" target-y="307.6"></path><path d="M 698.30 317.10 L 750.80 312.00" fill="none" group-id="1,3,14" node-id="407" stroke="#ffffff" stroke-linecap="round" stroke-width="2" target-height="5.100006" target-width="52.5" target-x="698.3" target-y="312"></path><path d="M 695.40 325.10 L 737.00 320.40" fill="none" group-id="1,3,14" node-id="409" stroke="#ffffff" stroke-linecap="round" stroke-width="2" target-height="4.700012" target-width="41.599976" target-x="695.4" target-y="320.4"></path><path d="M 788.00 650.40 L 795.50 655.90 L 806.40 664.90 L 813.20 671.80 L 815.70 675.10" fill="none" group-id="1,3,14" node-id="411" stroke="#ffffff" stroke-linecap="round" stroke-width="2" target-height="24.699951" target-width="27.700012" target-x="788" target-y="650.4"></path><path d="M 792.60 645.10 L 811.80 660.90 L 816.80 665.50 L 819.30 668.40" fill="none" group-id="1,3,14" node-id="413" stroke="#ffffff" stroke-linecap="round" stroke-width="2" target-height="23.300049" target-width="26.700012" target-x="792.6" target-y="645.1"></path><path d="M 797.00 641.00 L 810.80 653.40" fill="none" group-id="1,3,14" node-id="415" stroke="#ffffff" stroke-linecap="round" stroke-width="2" target-height="12.400024" target-width="13.799988" target-x="797" target-y="641"></path></g></g><path d="M 244.30 706.00 L 243.50 710.40 L 241.40 714.00 L 238.20 716.70 L 236.30 717.60 L 231.90 718.40 L 227.60 717.60 L 223.90 715.50 L 221.20 712.30 L 219.70 708.30 L 219.50 706.00 L 219.70 703.80 L 220.30 701.70 L 222.40 698.00 L 225.70 695.30 L 227.60 694.40 L 231.90 693.60 L 236.30 694.40 L 239.90 696.50 L 242.60 699.80 L 243.50 701.70 L 244.30 706.00 Z" fill="url(#New_Pattern_Swatch_3)" fill-rule="nonzero" group-id="1" node-id="419" stroke="#c6e700" stroke-linecap="round" stroke-width="2" target-height="24.800049" target-width="24.800003" target-x="219.5" target-y="693.6"></path><path d="M 277.80 709.80 L 277.60 713.00 L 276.00 718.70 L 274.70 721.40 L 271.10 726.00 L 266.40 729.60 L 263.80 730.90 L 258.00 732.50 L 254.90 732.70 L 248.70 731.90 L 245.90 730.90 L 240.80 727.90 L 236.70 723.80 L 235.10 721.40 L 233.70 718.70 L 232.80 715.90 L 232.20 713.00 L 231.90 709.80 L 232.80 703.60 L 233.70 700.80 L 236.70 695.70 L 240.80 691.60 L 245.90 688.60 L 251.70 687.10 L 254.90 686.80 L 258.00 687.10 L 263.80 688.60 L 266.40 690.00 L 271.10 693.60 L 274.70 698.20 L 276.00 700.80 L 277.60 706.60 L 277.80 709.80 Z" fill="none" group-id="1" node-id="421" stroke="#855bfb" stroke-linecap="round" stroke-width="2" target-height="45.900024" target-width="45.899994" target-x="231.9" target-y="686.8"></path><path d="M 869.70 454.40 L 882.80 411.30 L 884.60 410.00 L 885.70 409.80 L 897.90 409.80 L 899.30 410.10 L 900.40 410.90 L 901.20 412.00 L 901.40 413.40 L 901.40 455.40 L 901.20 456.80 L 900.40 457.90 L 899.30 458.70 L 897.90 459.00 L 873.10 459.00 L 872.00 458.80 L 870.30 457.50 L 869.80 456.50 L 869.70 454.40 Z" fill="none" group-id="1" node-id="423" stroke="#c6e700" stroke-linecap="round" stroke-width="2" target-height="49.200012" target-width="31.700012" target-x="869.7" target-y="409.8"></path><path d="M 907.90 436.40 L 912.70 441.50 L 913.40 443.90 L 913.20 445.30 L 911.90 447.50 L 906.80 452.30 L 904.40 453.00 L 901.90 452.30 L 896.00 446.40 L 895.30 443.90 L 895.50 442.60 L 896.80 440.40 L 901.90 435.60 L 904.40 434.90 L 906.80 435.60 L 907.90 436.40 Z" fill="url(#New_Pattern_Swatch_6)" fill-rule="nonzero" group-id="1" node-id="425" stroke="#3f3e46" stroke-linecap="round" stroke-width="2" target-height="18.100006" target-width="18.100037" target-x="895.3" target-y="434.9"></path><path d="M 199.00 497.70 L 195.30 496.70 L 189.30 494.10 L 186.90 492.40 L 183.90 489.80 L 181.60 487.00 L 179.80 484.10 L 178.50 480.90 L 177.70 477.80 L 177.40 474.80 L 177.60 471.80 L 178.20 469.10 L 179.30 466.80 L 180.80 464.70 L 182.60 463.20 L 184.90 462.20 L 187.40 461.70 L 189.40 461.80 L 190.90 462.30 L 192.30 463.30 L 193.30 464.50 L 194.50 467.90 L 194.40 472.00 L 193.70 475.10 L 192.30 478.20 L 189.50 481.80 L 185.70 484.30 L 183.40 485.10 L 180.80 485.40 L 177.70 485.20 L 174.70 484.60 L 171.80 483.50 L 169.20 482.00 L 166.90 480.00 L 164.90 477.60 L 163.40 474.80 L 162.20 471.50 L 161.60 467.70 L 161.50 463.70 L 162.10 459.20 L 163.40 453.90" fill="none" group-id="1" node-id="427" stroke="#855bfb" stroke-linecap="round" stroke-width="2" target-height="43.80002" target-width="37.5" target-x="161.5" target-y="453.9"></path><path d="M 856.20 720.30 L 873.90 730.90 L 874.80 730.80 L 875.90 729.70 L 882.60 712.50 L 883.80 711.30 L 885.40 711.60 L 900.80 722.00 L 901.60 722.30 L 903.20 721.80 L 927.00 658.80 L 916.30 667.40" fill="none" group-id="1" node-id="429" stroke="#e2e2e2" stroke-linecap="round" stroke-width="2" target-height="72.10004" target-width="70.79999" target-x="856.2" target-y="658.8"></path><path d="M 929.70 671.30 L 927.00 658.80" fill="none" group-id="1" node-id="431" stroke="#e2e2e2" stroke-linecap="round" stroke-width="2" target-height="12.5" target-width="2.7000122" target-x="927" target-y="658.8"></path><path d="M 565.80 316.80 L 565.60 319.00 L 564.90 321.10 L 563.90 323.00 L 562.50 324.60 L 560.90 326.00 L 559.00 327.00 L 556.90 327.70 L 554.80 327.90 L 552.60 327.70 L 550.50 327.00 L 548.60 326.00 L 547.00 324.60 L 545.60 323.00 L 544.60 321.10 L 543.90 319.00 L 543.70 316.80 L 543.90 314.70 L 544.60 312.60 L 545.60 310.70 L 547.00 309.10 L 548.60 307.70 L 550.50 306.70 L 552.60 306.00 L 554.80 305.80 L 556.90 306.00 L 559.00 306.70 L 560.90 307.70 L 562.50 309.10 L 563.90 310.70 L 564.90 312.60 L 565.60 314.70 L 565.80 316.80 Z" fill="url(#New_Pattern_Swatch_5)" fill-rule="nonzero" group-id="1" node-id="433" stroke="#c3c3c3" stroke-linecap="round" stroke-width="2" target-height="22.100006" target-width="22.099976" target-x="543.7" target-y="305.8"></path></g></svg>